<svg width="10" height="10" viewBox="0 0 10 10" fill="none" xmlns="http://www.w3.org/2000/svg">
<circle cx="5" cy="5" r="5" fill="white"/>
</svg>
<svg width="10" height="10" viewBox="0 0 10 10" fill="none" xmlns="http://www.w3.org/2000/svg">
<circle cx="5" cy="5" r="5" fill="white"/>
</svg>
<svg width="10" height="10" viewBox="0 0 10 10" fill="none" xmlns="http://www.w3.org/2000/svg">
<circle cx="5" cy="5" r="5" fill="white"/>
</svg>
<svg width="10" height="10" viewBox="0 0 10 10" fill="none" xmlns="http://www.w3.org/2000/svg">
<circle cx="5" cy="5" r="5" fill="white"/>
</svg>
<svg width="10" height="10" viewBox="0 0 10 10" fill="none" xmlns="http://www.w3.org/2000/svg">
<circle cx="5" cy="5" r="5" fill="white"/>
</svg>
<svg width="325" height="280" viewBox="0 0 325 280" fill="none" xmlns="http://www.w3.org/2000/svg">
<path opacity="0.2" d="M323.148 0.749972L162.5 279L1.8523 0.75L323.148 0.749972Z" stroke="white"/>
</svg>
<svg width="203" height="325" viewBox="0 0 203 325" fill="none" xmlns="http://www.w3.org/2000/svg">
<path opacity="0.2" d="M279.264 162.5L1.01362 323.148L1.01365 1.85223L279.264 162.5Z" stroke="white"/>
</svg>
<svg width="177" height="204" viewBox="0 0 177 204" fill="none" xmlns="http://www.w3.org/2000/svg">
<path opacity="0.2" d="M1.90842 102.136L176.25 1.48003L176.25 202.793L1.90842 102.136Z" stroke="white"/>
</svg>
<svg width="552" height="478" viewBox="0 0 552 478" fill="none" xmlns="http://www.w3.org/2000/svg">
<path opacity="0.2" d="M550.842 0.583622L276.167 476.334L1.49227 0.58367L550.842 0.583622Z" stroke="white"/>
</svg>
